PathFileType	4	(X/Y/Z)	/Users/itak/Documents/Research/Walk-IL/dataset/trc/00341_00011.trc
DataRate	CameraRate	NumFrames	NumMarkers	Units	OrigDataRate	OrigDataStartFrame	OrigNumFrames
100.000000	100.000000	4	53	mm	100.000000	0	697
Frame#	Time	RPSI			LPSI			L3			STRN			T10			C7			CLAV			RBAK			LBAK			LSHO			LUPA			LAEL			LAOL			LWTS			LWPS			LFRA			LIFD			LHPS			LHTS			RSHO			RUPA			RAEL			RAOL			RWTS			RWPS			RFRA			RIFD			RHTS			RHPS			RBHD			LFHD			RFHD			LBHD			LHIP			RHIP			RASI			LASI			LKNE			LTHI			LANK			LTIP			LTOE			LMT1			LMT5			LHEE			RKNE			RTHI			RANK			RTIP			RTOE			RMT1			RMT5			RHEE			
		X1	Y1	Z1	X2	Y2	Z2	X3	Y3	Z3	X4	Y4	Z4	X5	Y5	Z5	X6	Y6	Z6	X7	Y7	Z7	X8	Y8	Z8	X9	Y9	Z9	X10	Y10	Z10	X11	Y11	Z11	X12	Y12	Z12	X13	Y13	Z13	X14	Y14	Z14	X15	Y15	Z15	X16	Y16	Z16	X17	Y17	Z17	X18	Y18	Z18	X19	Y19	Z19	X20	Y20	Z20	X21	Y21	Z21	X22	Y22	Z22	X23	Y23	Z23	X24	Y24	Z24	X25	Y25	Z25	X26	Y26	Z26	X27	Y27	Z27	X28	Y28	Z28	X29	Y29	Z29	X30	Y30	Z30	X31	Y31	Z31	X32	Y32	Z32	X33	Y33	Z33	X34	Y34	Z34	X35	Y35	Z35	X36	Y36	Z36	X37	Y37	Z37	X38	Y38	Z38	X39	Y39	Z39	X40	Y40	Z40	X41	Y41	Z41	X42	Y42	Z42	X43	Y43	Z43	X44	Y44	Z44	X45	Y45	Z45	X46	Y46	Z46	X47	Y47	Z47	X48	Y48	Z48	X49	Y49	Z49	X50	Y50	Z50	X51	Y51	Z51	X52	Y52	Z52	X53	Y53	Z53	

1	0	-132.8151245117188	982.4290771484375	1147.08349609375	-133.7809600830078	981.3274536132812	1018.756530761719	-134.7914886474609	1029.665649414062	1086.607788085938	81.16725158691406	1223.812255859375	1074.926147460938	-155.2083587646484	1149.237915039062	1075.41845703125	-123.6357498168945	1398.352172851562	1059.374145507812	35.113525390625	1348.094604492188	1069.389770507812	-167.2428131103516	1258.258911132812	1127.080810546875	-128.7080841064453	1360.282104492188	957.7484741210938	-42.49842834472656	1380.439086914062	902.9408569335938	-52.7531852722168	1258.298461914062	837.3182983398438	-25.1230525970459	1053.935546875	832.968017578125	-91.8924560546875	1041.090209960938	885.8705444335938	73.41077423095703	815.1874389648438	894.9235229492188	40.72428512573242	801.999267578125	836.0006713867188	-5.088131904602051	950.2867431640625	830.829345703125	81.88140869140625	654.591064453125	902.986328125	37.61832809448242	731.5352172851562	844.1563720703125	88.73151397705078	736.77099609375	882.3997802734375	-70.20919799804688	1389.044067382812	1224.19384765625	-80.66049194335938	1323.108276367188	1287.324829101562	-60.48450088500977	1055.21142578125	1322.086547851562	-102.3486785888672	1047.90625	1237.951293945312	49.73105621337891	827.903076171875	1271.946655273438	18.45888710021973	813.1484375	1340.421997070312	-32.41864013671875	988.1571044921875	1330.130004882812	61.56661605834961	656.45458984375	1273.821044921875	80.61016082763672	726.9605102539062	1285.116943359375	33.77067184448242	727.113037109375	1335.5341796875	-94.29121398925781	1604.282470703125	1134.08837890625	91.88847351074219	1625.353271484375	1041.853149414062	67.24913787841797	1625.0107421875	1140.1416015625	-85.47743225097656	1599.0849609375	989.5343627929688	-49.11322021484375	921.980712890625	914.3394775390625	-57.13142395019531	929.6032104492188	1257.650146484375	50.99086380004883	953.9556274414062	1215.0498046875	71.91027069091797	945.8751220703125	973.9625854492188	-43.399658203125	467.6922912597656	908.9002075195312	-25.30607223510742	603.861328125	904.9534912109375	-122.9650650024414	46.20163726806641	903.2621459960938	-87.87782287597656	254.8133392333984	891.341552734375	82.45127105712891	43.04100799560547	966.2125244140625	13.90526676177979	35.1609992980957	1006.69482421875	3.389473438262939	42.42082595825195	892.300048828125	-155.9147796630859	44.83583450317383	970.0216064453125	-61.22994613647461	469.0741271972656	1262.7958984375	5.830696105957031	721.3507080078125	1272.72998046875	-139.3559722900391	50.25110244750977	1265.962280273438	-63.42350006103516	352.2559814453125	1264.030151367188	56.17676544189453	44.65092849731445	1219.109985351562	2.707464933395386	46.19744873046875	1176.523315429688	-39.35479354858398	35.58315277099609	1287.503173828125	-187.1109161376953	56.92036437988281	1215.107421875	
2	0.01	-132.8031463623047	982.4324340820312	1147.072387695312	-133.7379455566406	981.3130493164062	1018.741271972656	-134.7740936279297	1029.661376953125	1086.605224609375	81.26539611816406	1223.79345703125	1074.944458007812	-155.1368408203125	1149.256591796875	1075.432983398438	-123.5436248779297	1398.342041015625	1059.35107421875	35.17636108398438	1348.048950195312	1069.388671875	-167.1811218261719	1258.2783203125	1127.078857421875	-128.6514892578125	1360.284423828125	957.7325439453125	-42.39398193359375	1380.444458007812	902.942138671875	-52.69520950317383	1258.28369140625	837.32177734375	-25.12412261962891	1053.919067382812	832.9506225585938	-91.88628387451172	1041.089965820312	885.8768310546875	73.34139251708984	815.0985107421875	894.9386596679688	40.68206024169922	801.9618530273438	836.0012817382812	-5.100399017333984	950.2713623046875	830.8248291015625	81.74504852294922	654.54931640625	902.9651489257812	37.52130889892578	731.507568359375	844.15185546875	88.61522674560547	736.6597900390625	882.35107421875	-70.13488006591797	1389.044189453125	1224.177368164062	-80.58351135253906	1323.092163085938	1287.303466796875	-60.46944046020508	1055.213989257812	1322.081298828125	-102.3345794677734	1047.906127929688	1237.938842773438	49.73291397094727	827.8828735351562	1271.947998046875	18.45692825317383	813.1436157226562	1340.421630859375	-32.3942756652832	988.15087890625	1330.119995117188	61.54259490966797	656.4426879882812	1273.809204101562	80.58937072753906	726.93603515625	1285.094604492188	33.72956085205078	727.0800170898438	1335.526000976562	-94.15900421142578	1604.258666992188	1134.021850585938	91.96345520019531	1625.330932617188	1041.846435546875	67.35991668701172	1625.010498046875	1140.129272460938	-85.41521453857422	1599.078125	989.506103515625	-49.08694839477539	921.95068359375	914.3218994140625	-57.13025283813477	929.610107421875	1257.651977539062	51.02776336669922	953.9713134765625	1215.045043945312	71.93828582763672	945.84423828125	973.9755859375	-43.3785285949707	467.6767883300781	908.897216796875	-25.26774024963379	603.864990234375	904.9523315429688	-122.9746932983398	46.19513320922852	903.2642822265625	-87.87848663330078	254.8056030273438	891.3340454101562	82.44963836669922	43.04177856445312	966.210205078125	13.90670204162598	35.16525268554688	1006.697509765625	3.39902663230896	42.42916870117188	892.3033447265625	-155.9206085205078	44.83187103271484	970.01806640625	-61.25707626342773	469.05859375	1262.783203125	5.833155155181885	721.3486938476562	1272.72705078125	-139.3580627441406	50.24798965454102	1265.95556640625	-63.41566848754883	352.251220703125	1264.015869140625	56.16866302490234	44.66378021240234	1219.110595703125	2.699467897415161	46.20248031616211	1176.525146484375	-39.36114883422852	35.57852935791016	1287.49951171875	-187.1050872802734	56.90516662597656	1215.1025390625	
3	0.02	-132.7898864746094	982.4364624023438	1147.06005859375	-133.6819610595703	981.2965087890625	1018.72021484375	-134.7513122558594	1029.65771484375	1086.604736328125	81.38773345947266	1223.770141601562	1074.971435546875	-155.0468139648438	1149.275146484375	1075.44921875	-123.419189453125	1398.324951171875	1059.322998046875	35.25236511230469	1347.9990234375	1069.389770507812	-167.0968017578125	1258.30078125	1127.079833984375	-128.5798950195312	1360.288452148438	957.7169799804688	-42.26452255249023	1380.44970703125	902.9478149414062	-52.624267578125	1258.268188476562	837.3257446289062	-25.12472152709961	1053.897583007812	832.9329833984375	-91.87795257568359	1041.089477539062	885.8871459960938	73.2529296875	814.9840698242188	894.9561767578125	40.62528228759766	801.9161987304688	835.9989624023438	-5.119327068328857	950.2499389648438	830.818603515625	81.56061553955078	654.48486328125	902.9363403320312	37.39520645141602	731.46826171875	844.1444702148438	88.47737884521484	736.5308227539062	882.27978515625	-70.03916168212891	1389.042602539062	1224.158203125	-80.48426055908203	1323.074340820312	1287.277587890625	-60.44751739501953	1055.21484375	1322.074584960938	-102.3120956420898	1047.906982421875	1237.922729492188	49.73513793945312	827.8560791015625	1271.948974609375	18.45344161987305	813.1363525390625	1340.420654296875	-32.36347198486328	988.1448974609375	1330.1083984375	61.50436019897461	656.4261474609375	1273.791748046875	80.56956481933594	726.9133911132812	1285.074340820312	33.67990875244141	727.0399780273438	1335.513671875	-94.00300598144531	1604.232421875	1133.949829101562	92.06163787841797	1625.302490234375	1041.8388671875	67.50555419921875	1625.009033203125	1140.109619140625	-85.33084869384766	1599.06640625	989.4686279296875	-49.05551147460938	921.917236328125	914.304931640625	-57.12408447265625	929.6165161132812	1257.650390625	51.066162109375	953.9851684570312	1215.03955078125	71.97675323486328	945.8015747070312	973.9926147460938	-43.34797668457031	467.6614379882812	908.894775390625	-25.214599609375	603.8712768554688	904.9432983398438	-122.9839096069336	46.18830871582031	903.2666015625	-87.875732421875	254.7952880859375	891.3241577148438	82.44483184814453	43.04176330566406	966.208251953125	13.90765762329102	35.16861343383789	1006.699279785156	3.408870458602905	42.43842697143555	892.3060302734375	-155.9274444580078	44.82560729980469	970.0177001953125	-61.28216171264648	469.0388488769531	1262.768432617188	5.839233875274658	721.3433837890625	1272.720825195312	-139.3591613769531	50.24634552001953	1265.948486328125	-63.40376281738281	352.2459106445312	1263.996337890625	56.15737533569336	44.67874145507812	1219.110473632812	2.690199613571167	46.20497512817383	1176.524291992188	-39.3682975769043	35.57512283325195	1287.494140625	-187.0988616943359	56.88496780395508	1215.094360351562	
4	0.03	-132.7757110595703	982.4407348632812	1147.047485351562	-133.6136322021484	981.2789916992188	1018.693481445312	-134.723388671875	1029.655395507812	1086.606323242188	81.53054046630859	1223.7421875	1075.007690429688	-154.9425048828125	1149.290649414062	1075.46630859375	-123.263542175293	1398.300537109375	1059.293212890625	35.33783340454102	1347.950439453125	1069.39404296875	-166.9900512695312	1258.324462890625	1127.085693359375	-128.4948883056641	1360.294555664062	957.7042236328125	-42.11614227294922	1380.452880859375	902.9583740234375	-52.5437126159668	1258.253540039062	837.3297729492188	-25.12454605102539	1053.87255859375	832.9179077148438	-91.86728668212891	1041.088745117188	885.9022827148438	73.14866638183594	814.848876953125	894.9739379882812	40.55224990844727	801.8643798828125	835.9917602539062	-5.146263599395752	950.2225341796875	830.8111572265625	81.33493804931641	654.4003295898438	902.901123046875	37.24216842651367	731.4168090820312	844.1331176757812	88.32205200195312	736.3866577148438	882.18310546875	-69.92488861083984	1389.037719726562	1224.138061523438	-80.36573028564453	1323.056762695312	1287.249267578125	-60.4171142578125	1055.211669921875	1322.066772460938	-102.2803268432617	1047.909301757812	1237.904663085938	49.73744201660156	827.8223266601562	1271.949096679688	18.44831275939941	813.126220703125	1340.419189453125	-32.32710266113281	988.1397705078125	1330.096435546875	61.45048904418945	656.4061279296875	1273.767822265625	80.54978942871094	726.8912353515625	1285.055419921875	33.62493133544922	726.9947509765625	1335.497802734375	-93.83339691162109	1604.20654296875	1133.881713867188	92.18136596679688	1625.269287109375	1041.830932617188	67.68378448486328	1625.005004882812	1140.081176757812	-85.22457122802734	1599.049072265625	989.4229125976562	-49.017333984375	921.883056640625	914.2905883789062	-57.11233901977539	929.6211547851562	1257.644409179688	51.10341262817383	953.9959716796875	1215.035278320312	72.02632904052734	945.7476806640625	974.0137939453125	-43.30642318725586	467.6476135253906	908.8944091796875	-25.14547538757324	603.8822021484375	904.9234619140625	-122.9912414550781	46.18202590942383	903.2684936523438	-87.86867523193359	254.7825469970703	891.3119506835938	82.43661499023438	43.04056549072266	966.2066040039062	13.90797805786133	35.17100524902344	1006.699951171875	3.41693902015686	42.44620513916016	892.30810546875	-155.9352569580078	44.817138671875	970.0208740234375	-61.30015563964844	469.0157775878906	1262.753051757812	5.850420951843262	721.333251953125	1272.71044921875	-139.3591766357422	50.24668121337891	1265.94091796875	-63.38733673095703	352.2398681640625	1263.971923828125	56.14346313476562	44.69499588012695	1219.109375	2.679810523986816	46.2030029296875	1176.519287109375	-39.37540054321289	35.57444763183594	1287.487182617188	-187.0926666259766	56.86159896850586	1215.082275390625	
